<?xml version="1.0" standalone="no"?>
<!DOCTYPE svg PUBLIC "-//W3C//DTD SVG 20010904//EN"
 "http://www.w3.org/TR/2001/REC-SVG-20010904/DTD/svg10.dtd">
<svg version="1.0" xmlns="http://www.w3.org/2000/svg"
 width="444.000000pt" height="444.000000pt" viewBox="0 0 444.000000 444.000000"
 preserveAspectRatio="xMidYMid meet">
<metadata>
Created by potrace 1.11, written by Peter Selinger 2001-2013
</metadata>
<g transform="translate(0.000000,444.000000) scale(0.100000,-0.100000)"
fill="#000000" stroke="none">
<path d="M1291 4399 c-114 -54 -261 -176 -320 -263 -36 -55 -97 -194 -156
-356 -7 -19 -29 -74 -49 -122 -40 -96 -54 -147 -92 -323 -42 -192 -45 -215
-49 -310 -2 -49 -6 -156 -10 -236 -15 -291 16 -457 134 -704 47 -99 75 -141
158 -240 104 -124 464 -480 543 -536 25 -17 72 -57 106 -88 54 -50 170 -147
360 -300 34 -28 72 -65 85 -83 12 -18 37 -49 55 -68 36 -39 114 -181 114 -209
0 -9 11 -51 25 -91 14 -40 25 -95 25 -121 0 -127 74 -275 159 -319 70 -35 165
-23 225 29 32 28 56 88 56 140 0 27 5 53 10 56 21 13 51 87 51 128 1 23 -4 69
-11 102 -13 66 -8 368 7 465 5 30 25 102 45 160 20 58 45 141 56 185 32 132
90 285 143 379 28 48 63 122 79 165 36 97 87 210 151 333 27 54 61 130 74 169
14 40 32 83 40 96 9 13 51 92 94 176 43 84 95 184 115 222 21 39 57 120 81
180 24 61 60 145 80 189 44 95 59 141 85 269 12 54 32 128 46 165 23 62 25 80
25 224 -1 152 -12 235 -41 289 -64 119 -205 219 -355 252 -187 40 -429 -23
-635 -167 -96 -66 -242 -233 -291 -331 -22 -44 -62 -122 -90 -174 -28 -51 -55
-117 -60 -146 -5 -29 -20 -74 -33 -101 l-24 -49 -21 75 c-12 41 -25 84 -28 95
-17 60 -141 327 -174 377 -21 31 -39 59 -39 61 0 17 -81 134 -133 190 -71 79
-160 135 -257 161 -36 10 -78 22 -94 27 -16 5 -68 9 -115 9 -75 0 -94 -4 -150
-31z m284 -390 c16 -16 -20 -10 -41 7 -18 14 -18 15 6 8 14 -3 29 -10 35 -15z"/>
</g>
</svg>
